<mxfile host="app.diagrams.net" modified="2022-09-19T10:12:10.764Z" agent="5.0 (Macintosh; Intel Mac OS X 10_15_7) AppleWebKit/537.36 (KHTML, like Gecko) Chrome/104.0.0.0 Safari/537.36" etag="M__YDxusTKOOCdKJ271Q" version="20.3.2" type="github">
  <diagram id="e5gGsRs70VFmHNgTOOWE" name="Страница 1">
    <mxGraphModel dx="1158" dy="1783" grid="1" gridSize="10" guides="1" tooltips="1" connect="1" arrows="1" fold="1" page="1" pageScale="1" pageWidth="827" pageHeight="1169" math="0" shadow="0">
      <root>
        <mxCell id="0" />
        <mxCell id="1" parent="0" />
        <mxCell id="cXhh0mplNICcmaRQuzWr-1" value="Actor" style="shape=umlActor;verticalLabelPosition=bottom;verticalAlign=top;html=1;outlineConnect=0;" parent="1" vertex="1">
          <mxGeometry x="70" y="260" width="30" height="60" as="geometry" />
        </mxCell>
        <mxCell id="cXhh0mplNICcmaRQuzWr-3" value="Авторизація адмін" style="ellipse;whiteSpace=wrap;html=1;fillColor=#d5e8d4;strokeColor=#82b366;" parent="1" vertex="1">
          <mxGeometry x="180" y="120" width="120" height="80" as="geometry" />
        </mxCell>
        <mxCell id="cXhh0mplNICcmaRQuzWr-4" value="Авторизація клієнт" style="ellipse;whiteSpace=wrap;html=1;fillColor=#ffe6cc;strokeColor=#d79b00;" parent="1" vertex="1">
          <mxGeometry x="190" y="460" width="120" height="80" as="geometry" />
        </mxCell>
        <mxCell id="cXhh0mplNICcmaRQuzWr-5" value="" style="endArrow=classic;html=1;rounded=0;exitX=1;exitY=0.3333333333333333;exitDx=0;exitDy=0;exitPerimeter=0;entryX=0;entryY=0.5;entryDx=0;entryDy=0;" parent="1" source="cXhh0mplNICcmaRQuzWr-1" target="cXhh0mplNICcmaRQuzWr-3" edge="1">
          <mxGeometry width="50" height="50" relative="1" as="geometry">
            <mxPoint x="390" y="340" as="sourcePoint" />
            <mxPoint x="440" y="290" as="targetPoint" />
            <Array as="points" />
          </mxGeometry>
        </mxCell>
        <mxCell id="cXhh0mplNICcmaRQuzWr-6" value="" style="endArrow=classic;html=1;rounded=0;exitX=1;exitY=0.3333333333333333;exitDx=0;exitDy=0;exitPerimeter=0;entryX=0;entryY=0.5;entryDx=0;entryDy=0;" parent="1" source="cXhh0mplNICcmaRQuzWr-1" target="cXhh0mplNICcmaRQuzWr-4" edge="1">
          <mxGeometry width="50" height="50" relative="1" as="geometry">
            <mxPoint x="390" y="340" as="sourcePoint" />
            <mxPoint x="440" y="290" as="targetPoint" />
          </mxGeometry>
        </mxCell>
        <mxCell id="cXhh0mplNICcmaRQuzWr-8" value="Extends" style="endArrow=blockThin;endSize=16;endFill=1;html=1;rounded=0;exitX=1;exitY=0;exitDx=0;exitDy=0;startArrow=none;startFill=0;dashed=1;" parent="1" source="cXhh0mplNICcmaRQuzWr-3" target="cXhh0mplNICcmaRQuzWr-9" edge="1">
          <mxGeometry width="160" relative="1" as="geometry">
            <mxPoint x="330" y="320" as="sourcePoint" />
            <mxPoint x="400" y="170" as="targetPoint" />
          </mxGeometry>
        </mxCell>
        <mxCell id="cXhh0mplNICcmaRQuzWr-9" value="Створення бази даних" style="ellipse;whiteSpace=wrap;html=1;fillColor=#dae8fc;strokeColor=#6c8ebf;" parent="1" vertex="1">
          <mxGeometry x="450" y="-60" width="120" height="80" as="geometry" />
        </mxCell>
        <mxCell id="cXhh0mplNICcmaRQuzWr-10" value="Extends" style="endArrow=blockThin;endSize=16;endFill=1;html=1;rounded=0;exitX=1;exitY=0.5;exitDx=0;exitDy=0;dashed=1;" parent="1" source="cXhh0mplNICcmaRQuzWr-3" target="cXhh0mplNICcmaRQuzWr-11" edge="1">
          <mxGeometry width="160" relative="1" as="geometry">
            <mxPoint x="330" y="310" as="sourcePoint" />
            <mxPoint x="400" y="220" as="targetPoint" />
          </mxGeometry>
        </mxCell>
        <mxCell id="cXhh0mplNICcmaRQuzWr-11" value="Створення таблиці в базі" style="ellipse;whiteSpace=wrap;html=1;fillColor=#dae8fc;strokeColor=#6c8ebf;" parent="1" vertex="1">
          <mxGeometry x="450" y="30" width="120" height="80" as="geometry" />
        </mxCell>
        <mxCell id="cXhh0mplNICcmaRQuzWr-12" value="Редагування таблиці в базі" style="ellipse;whiteSpace=wrap;html=1;fillColor=#dae8fc;strokeColor=#6c8ebf;" parent="1" vertex="1">
          <mxGeometry x="460" y="120" width="120" height="80" as="geometry" />
        </mxCell>
        <mxCell id="cXhh0mplNICcmaRQuzWr-13" value="Extends" style="endArrow=blockThin;endSize=16;endFill=1;html=1;rounded=0;exitX=0.992;exitY=0.644;exitDx=0;exitDy=0;exitPerimeter=0;entryX=0;entryY=0.5;entryDx=0;entryDy=0;dashed=1;" parent="1" source="cXhh0mplNICcmaRQuzWr-3" target="cXhh0mplNICcmaRQuzWr-12" edge="1">
          <mxGeometry width="160" relative="1" as="geometry">
            <mxPoint x="310" y="270" as="sourcePoint" />
            <mxPoint x="421.5889360201311" y="180.72885118389513" as="targetPoint" />
          </mxGeometry>
        </mxCell>
        <mxCell id="cXhh0mplNICcmaRQuzWr-14" value="Перегляд таблиці в базі" style="ellipse;whiteSpace=wrap;html=1;fillColor=#e1d5e7;strokeColor=#9673a6;" parent="1" vertex="1">
          <mxGeometry x="300" y="320" width="120" height="80" as="geometry" />
        </mxCell>
        <mxCell id="cXhh0mplNICcmaRQuzWr-15" value="Extends" style="endArrow=blockThin;endSize=16;endFill=1;html=1;rounded=0;exitX=1;exitY=0;exitDx=0;exitDy=0;dashed=1;" parent="1" source="cXhh0mplNICcmaRQuzWr-4" target="cXhh0mplNICcmaRQuzWr-14" edge="1">
          <mxGeometry width="160" relative="1" as="geometry">
            <mxPoint x="292.42640687119297" y="241.71572875253787" as="sourcePoint" />
            <mxPoint x="429.78461441374134" y="84.55771644895458" as="targetPoint" />
          </mxGeometry>
        </mxCell>
        <mxCell id="cXhh0mplNICcmaRQuzWr-16" value="Extends" style="endArrow=blockThin;endSize=16;endFill=1;html=1;rounded=0;exitX=1;exitY=1;exitDx=0;exitDy=0;dashed=1;" parent="1" source="cXhh0mplNICcmaRQuzWr-3" target="cXhh0mplNICcmaRQuzWr-14" edge="1">
          <mxGeometry width="160" relative="1" as="geometry">
            <mxPoint x="309.03999999999996" y="181.51999999999998" as="sourcePoint" />
            <mxPoint x="400" y="240" as="targetPoint" />
          </mxGeometry>
        </mxCell>
        <mxCell id="cXhh0mplNICcmaRQuzWr-17" value="Збереження бази на диск" style="ellipse;whiteSpace=wrap;html=1;fillColor=#e1d5e7;strokeColor=#9673a6;" parent="1" vertex="1">
          <mxGeometry x="410" y="410" width="120" height="80" as="geometry" />
        </mxCell>
        <mxCell id="cXhh0mplNICcmaRQuzWr-18" value="Видалення таблиці з бази" style="ellipse;whiteSpace=wrap;html=1;fillColor=#dae8fc;strokeColor=#6c8ebf;" parent="1" vertex="1">
          <mxGeometry x="460" y="210" width="120" height="80" as="geometry" />
        </mxCell>
        <mxCell id="cXhh0mplNICcmaRQuzWr-19" value="Extends" style="endArrow=blockThin;endSize=16;endFill=1;html=1;rounded=0;exitX=0.925;exitY=0.75;exitDx=0;exitDy=0;exitPerimeter=0;entryX=0;entryY=0.35;entryDx=0;entryDy=0;entryPerimeter=0;dashed=1;" parent="1" source="cXhh0mplNICcmaRQuzWr-3" target="cXhh0mplNICcmaRQuzWr-18" edge="1">
          <mxGeometry width="160" relative="1" as="geometry">
            <mxPoint x="309.03999999999996" y="181.51999999999998" as="sourcePoint" />
            <mxPoint x="380" y="170" as="targetPoint" />
          </mxGeometry>
        </mxCell>
        <mxCell id="cXhh0mplNICcmaRQuzWr-20" value="Зчитування бази з диску" style="ellipse;whiteSpace=wrap;html=1;fillColor=#e1d5e7;strokeColor=#9673a6;" parent="1" vertex="1">
          <mxGeometry x="550" y="470" width="120" height="80" as="geometry" />
        </mxCell>
        <mxCell id="cXhh0mplNICcmaRQuzWr-21" value="Extends" style="endArrow=blockThin;endSize=16;endFill=1;html=1;rounded=0;exitX=1;exitY=0.5;exitDx=0;exitDy=0;entryX=0;entryY=0.5;entryDx=0;entryDy=0;dashed=1;" parent="1" source="cXhh0mplNICcmaRQuzWr-4" target="cXhh0mplNICcmaRQuzWr-17" edge="1">
          <mxGeometry width="160" relative="1" as="geometry">
            <mxPoint x="330" y="320" as="sourcePoint" />
            <mxPoint x="490" y="320" as="targetPoint" />
          </mxGeometry>
        </mxCell>
        <mxCell id="cXhh0mplNICcmaRQuzWr-22" value="Extends" style="endArrow=blockThin;endSize=16;endFill=1;html=1;rounded=0;exitX=0.933;exitY=0.744;exitDx=0;exitDy=0;exitPerimeter=0;entryX=0.008;entryY=0.594;entryDx=0;entryDy=0;entryPerimeter=0;dashed=1;" parent="1" source="cXhh0mplNICcmaRQuzWr-4" target="cXhh0mplNICcmaRQuzWr-20" edge="1">
          <mxGeometry width="160" relative="1" as="geometry">
            <mxPoint x="310" y="520" as="sourcePoint" />
            <mxPoint x="470" y="520" as="targetPoint" />
          </mxGeometry>
        </mxCell>
        <mxCell id="cXhh0mplNICcmaRQuzWr-23" value="Extends" style="endArrow=blockThin;endSize=16;endFill=1;html=1;rounded=0;exitX=1;exitY=1;exitDx=0;exitDy=0;entryX=1;entryY=0;entryDx=0;entryDy=0;dashed=1;" parent="1" source="cXhh0mplNICcmaRQuzWr-3" target="cXhh0mplNICcmaRQuzWr-17" edge="1">
          <mxGeometry width="160" relative="1" as="geometry">
            <mxPoint x="311.96000000000004" y="529.52" as="sourcePoint" />
            <mxPoint x="510.96000000000004" y="562.52" as="targetPoint" />
          </mxGeometry>
        </mxCell>
        <mxCell id="cXhh0mplNICcmaRQuzWr-24" value="Extends" style="endArrow=blockThin;endSize=16;endFill=1;html=1;rounded=0;exitX=0.933;exitY=0.731;exitDx=0;exitDy=0;exitPerimeter=0;entryX=0.5;entryY=0;entryDx=0;entryDy=0;dashed=1;" parent="1" source="cXhh0mplNICcmaRQuzWr-3" target="cXhh0mplNICcmaRQuzWr-20" edge="1">
          <mxGeometry width="160" relative="1" as="geometry">
            <mxPoint x="321.96000000000004" y="539.52" as="sourcePoint" />
            <mxPoint x="520.96" y="572.52" as="targetPoint" />
          </mxGeometry>
        </mxCell>
      </root>
    </mxGraphModel>
  </diagram>
</mxfile>
